<svg version="1.1" id="Layer_1" xmlns="http://www.w3.org/2000/svg" xmlns:xlink="http://www.w3.org/1999/xlink" x="0px" y="0px"
	 width="100%" viewBox="0 0 1024 1024" enable-background="new 0 0 1024 1024" xml:space="preserve">
<path fill="#FFFFFF" opacity="1.000000" stroke="none" 
	d="
M922.000000,1025.000000 
	C649.640808,1025.000000 377.281677,1025.000000 104.778572,1024.690308 
	C104.827637,1022.479370 104.726761,1020.491577 105.257629,1018.689880 
	C113.479790,990.785583 121.793419,962.908325 130.067474,935.019287 
	C169.357300,802.586914 208.651993,670.156006 247.914993,537.715637 
	C253.013458,520.517700 257.938110,503.268219 263.153595,485.723755 
	C264.472961,481.659912 265.581970,477.914886 266.855743,473.613434 
	C264.119659,473.613434 262.143921,473.613434 260.168213,473.613434 
	C202.715546,473.613434 145.262878,473.611572 87.810219,473.621643 
	C85.983932,473.621948 84.157661,473.744202 82.268684,473.470337 
	C82.721153,472.129456 83.122734,471.047241 83.767784,470.137695 
	C116.250710,424.333557 152.784653,382.116516 195.062561,345.040314 
	C205.934708,335.505829 217.208252,326.429077 228.545624,317.118408 
	C229.108246,316.986328 229.425262,316.886261 230.228516,316.863739 
	C256.870270,316.945312 283.028687,317.004700 309.185944,316.858368 
	C310.834473,316.849152 313.570435,315.570221 313.953583,314.317230 
	C319.883545,294.925232 325.507660,275.439728 331.365662,255.830383 
	C331.736633,255.475952 331.901703,255.237305 332.382080,254.932770 
	C380.431061,233.872299 429.995331,220.281189 482.175934,216.745438 
	C525.662354,213.798752 568.641846,216.811874 611.056702,226.958984 
	C639.549438,233.775467 667.128601,243.345123 694.050964,255.286453 
	C694.250061,255.812943 694.466187,256.018219 694.799683,256.493896 
	C695.571960,259.160797 696.328491,261.450165 697.083252,264.136292 
	C734.085083,389.347198 771.109314,514.155334 808.000183,639.002808 
	C809.190552,643.031189 810.786255,644.417908 815.104614,644.408325 
	C883.414001,644.256409 951.723938,644.303650 1020.033691,644.288940 
	C1021.689148,644.288574 1023.344543,644.100525 1025.000000,644.000000 
	C1025.000000,730.359192 1025.000000,816.718323 1024.535645,903.607727 
	C978.484192,904.137939 932.896912,904.137939 886.735229,904.137939 
	C888.663879,910.477722 890.441223,916.320374 892.223633,922.526672 
	C899.500305,947.333923 906.822876,971.762634 914.018311,996.228699 
	C916.826050,1005.775879 919.347900,1015.407104 922.000000,1025.000000 
M391.376129,587.109009 
	C390.602417,594.600342 393.833069,599.007690 400.417999,599.010803 
	C475.398651,599.046204 550.379333,599.046326 625.359985,599.012390 
	C632.479919,599.009155 636.159607,593.574097 634.233215,585.750488 
	C635.896362,580.976074 634.385864,577.155151 631.177002,573.431335 
	C617.051575,557.038940 603.091003,540.504456 589.055725,524.034302 
	C568.434753,499.835968 547.879456,475.580933 527.133911,451.489838 
	C518.862122,441.884003 506.858459,442.057861 498.665924,451.655792 
	C464.192719,492.042725 429.818604,532.514343 395.270966,572.837341 
	C391.675201,577.034180 390.003662,581.168091 391.376129,587.109009 
z"/>
<path fill="#101633" opacity="1.000000" stroke="none" 
	d="
M229.744904,316.794556 
	C229.425262,316.886261 229.108246,316.986328 228.059326,317.073700 
	C151.883194,317.035065 76.441597,317.017517 1.000000,317.000000 
	C1.000000,245.645767 1.000000,174.291550 1.379012,102.411423 
	C2.172257,101.067741 2.798570,100.291870 2.969655,99.426033 
	C7.069050,78.679649 15.817891,59.972530 29.614620,44.117580 
	C48.251862,22.700001 71.421089,8.319851 99.693100,2.925918 
	C100.553238,2.761814 101.235054,1.663023 102.000000,1.000001 
	C203.354233,1.000000 304.708466,1.000000 406.488342,1.379637 
	C399.975006,24.947796 392.980499,48.119873 386.110199,71.328728 
	C375.947235,105.660683 365.873047,140.018921 355.759888,174.365631 
	C347.848785,201.233673 339.935974,228.101242 332.023895,254.969009 
	C331.901703,255.237305 331.736633,255.475952 330.984924,255.850708 
	C309.198669,267.591583 287.644714,278.639374 266.828003,290.935272 
	C253.889664,298.577637 242.067856,308.110291 229.744904,316.794556 
z"/>
<path fill="#333333" opacity="1.000000" stroke="none" 
	d="
M332.382080,254.932770 
	C339.935974,228.101242 347.848785,201.233673 355.759888,174.365631 
	C365.873047,140.018921 375.947235,105.660683 386.110199,71.328728 
	C392.980499,48.119873 399.975006,24.947796 406.957001,1.379637 
	C477.354218,1.000000 547.708435,1.000000 618.574341,1.379616 
	C625.444946,23.219929 631.810852,44.678528 638.160767,66.141876 
	C645.827148,92.055092 653.565613,117.947617 661.057739,143.911163 
	C662.359985,148.424118 664.253052,150.139069 669.277527,150.131866 
	C787.851501,149.961899 906.425781,150.000000 1025.000000,150.000000 
	C1025.000000,184.020889 1025.000000,218.041794 1024.531494,252.541229 
	C916.302734,253.021942 808.542542,253.024017 700.782410,253.027023 
	C699.283508,253.027069 697.729248,252.801056 696.305969,253.132172 
	C695.423401,253.337509 694.739380,254.396484 693.966248,255.072296 
	C667.128601,243.345123 639.549438,233.775467 611.056702,226.958984 
	C568.641846,216.811874 525.662354,213.798752 482.175934,216.745438 
	C429.995331,220.281189 380.431061,233.872299 332.382080,254.932770 
z"/>
<path fill="#5170FF" opacity="1.000000" stroke="none" 
	d="
M262.943237,486.042633 
	C257.938110,503.268219 253.013458,520.517700 247.914993,537.715637 
	C208.651993,670.156006 169.357300,802.586914 130.067474,935.019287 
	C121.793419,962.908325 113.479790,990.785583 105.257629,1018.689880 
	C104.726761,1020.491577 104.827637,1022.479370 104.317322,1024.690308 
	C103.250000,1025.000000 102.500000,1025.000000 101.632278,1024.640869 
	C97.047112,1023.010742 92.519501,1021.918335 88.122475,1020.438049 
	C67.491112,1013.492126 49.263245,1002.799622 34.175453,986.788574 
	C17.872349,969.487732 7.567958,949.298706 2.929384,926.076965 
	C2.771733,925.287720 1.664563,924.688049 0.999987,924.000000 
	C1.000000,819.979126 1.000000,715.958191 1.314351,611.728882 
	C2.492699,610.142090 3.458404,608.816467 4.205367,607.377380 
	C15.151649,586.289795 25.522699,564.880371 37.150326,544.176392 
	C48.210331,524.483093 60.576012,505.523071 72.546265,486.204163 
	C72.724922,486.167664 73.005135,485.934265 73.472366,485.962891 
	C136.940811,486.008514 199.942017,486.025574 262.943237,486.042633 
z"/>
<path fill="#5170FF" opacity="1.000000" stroke="none" 
	d="
M1025.000000,643.531372 
	C1023.344543,644.100525 1021.689148,644.288574 1020.033691,644.288940 
	C951.723938,644.303650 883.414001,644.256409 815.104614,644.408325 
	C810.786255,644.417908 809.190552,643.031189 808.000183,639.002808 
	C771.109314,514.155334 734.085083,389.347198 697.543213,264.143066 
	C701.713989,263.592072 705.422974,263.431030 709.496094,263.395081 
	C711.576172,264.005310 713.292175,264.490448 715.190063,265.268494 
	C760.415955,288.642029 801.250671,317.741211 838.507385,351.910767 
	C889.676819,398.840149 932.553589,452.571320 969.154175,511.449005 
	C988.418030,542.437805 1005.733215,574.480835 1021.665527,607.291382 
	C1022.363403,608.728455 1023.870056,609.772766 1025.000000,611.000000 
	C1025.000000,621.687561 1025.000000,632.375122 1025.000000,643.531372 
z"/>
<path fill="#101633" opacity="1.000000" stroke="none" 
	d="
M1025.000000,149.531342 
	C906.425781,150.000000 787.851501,149.961899 669.277527,150.131866 
	C664.253052,150.139069 662.359985,148.424118 661.057739,143.911163 
	C653.565613,117.947617 645.827148,92.055092 638.160767,66.141876 
	C631.810852,44.678528 625.444946,23.219929 619.043030,1.379616 
	C720.354248,1.000000 821.708435,1.000000 923.586060,1.379551 
	C924.929626,2.173404 925.708923,2.809589 926.575928,2.969493 
	C947.323425,6.795819 965.695557,16.052799 981.610046,29.417065 
	C1003.374268,47.693630 1017.166016,71.200470 1023.044495,99.180092 
	C1023.261169,100.211472 1024.328857,101.064064 1025.000000,101.999985 
	C1025.000000,117.687561 1025.000000,133.375122 1025.000000,149.531342 
z"/>
<path fill="#101633" opacity="1.000000" stroke="none" 
	d="
M1025.000000,610.531372 
	C1023.870056,609.772766 1022.363403,608.728455 1021.665527,607.291382 
	C1005.733215,574.480835 988.418030,542.437805 969.154175,511.449005 
	C932.553589,452.571320 889.676819,398.840149 838.507385,351.910767 
	C801.250671,317.741211 760.415955,288.642029 715.478760,264.966248 
	C717.064697,264.241089 718.543884,263.997528 720.023071,263.997375 
	C821.682068,263.985779 923.341003,263.993713 1025.000000,264.000000 
	C1025.000000,379.354218 1025.000000,494.708466 1025.000000,610.531372 
z"/>
<path fill="#333333" opacity="1.000000" stroke="none" 
	d="
M1.000000,317.468658 
	C76.441597,317.017517 151.883194,317.035065 227.811096,317.097321 
	C217.208252,326.429077 205.934708,335.505829 195.062561,345.040314 
	C152.784653,382.116516 116.250710,424.333557 83.767784,470.137695 
	C83.122734,471.047241 82.721153,472.129456 81.905258,473.564697 
	C81.356812,474.034180 81.109085,474.070068 80.404297,474.050598 
	C53.631485,473.996796 27.315742,473.998413 1.000000,474.000000 
	C1.000000,421.979095 1.000000,369.958221 1.000000,317.468658 
z"/>
<path fill="#5170FE" opacity="1.000000" stroke="none" 
	d="
M922.375000,1025.000000 
	C919.347900,1015.407104 916.826050,1005.775879 914.018311,996.228699 
	C906.822876,971.762634 899.500305,947.333923 892.673950,922.512634 
	C936.663330,922.114807 980.207336,922.094666 1023.812134,922.468506 
	C1020.908752,932.617188 1018.782288,942.727905 1014.817017,952.057068 
	C1004.561218,976.185913 987.594482,994.773376 965.116333,1008.213501 
	C953.314636,1015.269958 940.651794,1020.301880 927.124146,1023.065735 
	C926.317993,1023.230469 925.703613,1024.333618 925.000000,1025.000000 
	C924.250000,1025.000000 923.500000,1025.000000 922.375000,1025.000000 
z"/>
<path fill="#101634" opacity="1.000000" stroke="none" 
	d="
M72.367615,486.240631 
	C60.576012,505.523071 48.210331,524.483093 37.150326,544.176392 
	C25.522699,564.880371 15.151649,586.289795 4.205367,607.377380 
	C3.458404,608.816467 2.492699,610.142090 1.314351,611.260254 
	C1.000000,569.645752 1.000000,528.291565 1.468657,486.469116 
	C25.414083,486.080811 48.890854,486.160736 72.367615,486.240631 
z"/>
<path fill="#08090A" opacity="1.000000" stroke="none" 
	d="
M1025.000000,263.541931 
	C923.341003,263.993713 821.682068,263.985779 720.023071,263.997375 
	C718.543884,263.997528 717.064697,264.241089 715.296814,264.673309 
	C713.292175,264.490448 711.576172,264.005310 709.348999,263.124542 
	C704.153198,260.524750 699.468567,258.320557 694.783997,256.116394 
	C694.466187,256.018219 694.250061,255.812943 694.050964,255.286469 
	C694.739380,254.396484 695.423401,253.337509 696.305969,253.132172 
	C697.729248,252.801056 699.283508,253.027069 700.782410,253.027023 
	C808.542542,253.024017 916.302734,253.021942 1024.531494,253.009888 
	C1025.000000,256.361298 1025.000000,259.722565 1025.000000,263.541931 
z"/>
<path fill="#000000" opacity="1.000000" stroke="none" 
	d="
M1025.000000,101.531326 
	C1024.328857,101.064064 1023.261169,100.211472 1023.044495,99.180092 
	C1017.166016,71.200470 1003.374268,47.693630 981.610046,29.417065 
	C965.695557,16.052799 947.323425,6.795819 926.575928,2.969493 
	C925.708923,2.809589 924.929626,2.173404 924.054749,1.379551 
	C957.593567,1.000000 991.187195,1.000000 1025.000000,1.000000 
	C1025.000000,34.353909 1025.000000,67.708298 1025.000000,101.531326 
z"/>
<path fill="#000000" opacity="1.000000" stroke="none" 
	d="
M101.531342,1.000001 
	C101.235054,1.663023 100.553238,2.761814 99.693100,2.925918 
	C71.421089,8.319851 48.251862,22.700001 29.614620,44.117580 
	C15.817891,59.972530 7.069050,78.679649 2.969655,99.426033 
	C2.798570,100.291870 2.172257,101.067741 1.379012,101.942764 
	C1.000000,68.406395 1.000000,34.812790 1.000000,1.000000 
	C34.353909,1.000000 67.708298,1.000000 101.531342,1.000001 
z"/>
<path fill="#000000" opacity="1.000000" stroke="none" 
	d="
M925.468628,1025.000000 
	C925.703613,1024.333618 926.317993,1023.230469 927.124146,1023.065735 
	C940.651794,1020.301880 953.314636,1015.269958 965.116333,1008.213501 
	C987.594482,994.773376 1004.561218,976.185913 1014.817017,952.057068 
	C1018.782288,942.727905 1020.908752,932.617188 1024.123291,922.432373 
	C1024.582397,922.001465 1024.791138,922.000732 1025.000000,922.000000 
	C1025.000000,956.259216 1025.000000,990.518372 1025.000000,1025.000000 
	C991.979431,1025.000000 958.958374,1025.000000 925.468628,1025.000000 
z"/>
<path fill="#000000" opacity="1.000000" stroke="none" 
	d="
M0.999987,924.468628 
	C1.664563,924.688049 2.771733,925.287720 2.929384,926.076965 
	C7.567958,949.298706 17.872349,969.487732 34.175453,986.788574 
	C49.263245,1002.799622 67.491112,1013.492126 88.122475,1020.438049 
	C92.519501,1021.918335 97.047112,1023.010742 101.257278,1024.640869 
	C67.739365,1025.000000 34.478737,1025.000000 1.000000,1025.000000 
	C1.000000,991.646118 1.000000,958.291687 0.999987,924.468628 
z"/>
<path fill="#252525" opacity="1.000000" stroke="none" 
	d="
M1025.000000,921.532043 
	C1024.791138,922.000732 1024.582397,922.001465 1024.062500,922.038330 
	C980.207336,922.094666 936.663330,922.114807 892.668945,922.148987 
	C890.441223,916.320374 888.663879,910.477722 886.735229,904.137939 
	C932.896912,904.137939 978.484192,904.137939 1024.535645,904.068970 
	C1025.000000,909.688049 1025.000000,915.376038 1025.000000,921.532043 
z"/>
<path fill="#070707" opacity="1.000000" stroke="none" 
	d="
M72.546272,486.204163 
	C48.890854,486.160736 25.414083,486.080811 1.468657,486.000427 
	C1.000000,482.307098 1.000000,478.614166 1.000000,474.460632 
	C27.315742,473.998413 53.631485,473.996796 80.284462,474.350372 
	C78.082840,478.448456 75.543983,482.191345 73.005127,485.934265 
	C73.005135,485.934265 72.724922,486.167664 72.546272,486.204163 
z"/>
<path fill="#5170FF" opacity="1.000000" stroke="none" 
	d="
M391.907654,586.460510 
	C390.003662,581.168091 391.675201,577.034180 395.270966,572.837341 
	C429.818604,532.514343 464.192719,492.042725 498.665924,451.655792 
	C506.858459,442.057861 518.862122,441.884003 527.133911,451.489838 
	C547.879456,475.580933 568.434753,499.835968 589.055725,524.034302 
	C603.091003,540.504456 617.051575,557.038940 631.177002,573.431335 
	C634.385864,577.155151 635.896362,580.976074 633.851501,586.327637 
	C630.879089,590.228027 627.446838,591.062317 623.326233,591.057678 
	C550.018494,590.975281 476.710571,590.962952 403.402924,591.079834 
	C398.721863,591.087280 394.910248,590.073486 391.907654,586.460510 
z"/>
<path fill="#5170FE" opacity="1.000000" stroke="none" 
	d="
M230.228531,316.863770 
	C242.067856,308.110291 253.889664,298.577637 266.828003,290.935272 
	C287.644714,278.639374 309.198669,267.591583 330.821869,255.996185 
	C325.507660,275.439728 319.883545,294.925232 313.953583,314.317230 
	C313.570435,315.570221 310.834473,316.849152 309.185944,316.858368 
	C283.028687,317.004700 256.870270,316.945312 230.228531,316.863770 
z"/>
<path fill="#222222" opacity="1.000000" stroke="none" 
	d="
M73.472359,485.962891 
	C75.543983,482.191345 78.082840,478.448456 80.741531,474.405762 
	C81.109085,474.070068 81.356812,474.034180 81.967957,473.903931 
	C84.157661,473.744202 85.983932,473.621948 87.810219,473.621643 
	C145.262878,473.611572 202.715546,473.613434 260.168213,473.613434 
	C262.143921,473.613434 264.119659,473.613434 266.855743,473.613434 
	C265.581970,477.914886 264.472961,481.659912 263.153595,485.723755 
	C199.942017,486.025574 136.940811,486.008514 73.472359,485.962891 
z"/>
<path fill="#01448A" opacity="1.000000" stroke="none" 
	d="
M391.641907,586.784790 
	C394.910248,590.073486 398.721863,591.087280 403.402924,591.079834 
	C476.710571,590.962952 550.018494,590.975281 623.326233,591.057678 
	C627.446838,591.062317 630.879089,590.228027 633.778076,586.686523 
	C636.159607,593.574097 632.479919,599.009155 625.359985,599.012390 
	C550.379333,599.046326 475.398651,599.046204 400.417999,599.010803 
	C393.833069,599.007690 390.602417,594.600342 391.641907,586.784790 
z"/>
<path fill="#333333" opacity="1.000000" stroke="none" 
	d="
M694.799683,256.493896 
	C699.468567,258.320557 704.153198,260.524750 708.984863,262.999451 
	C705.422974,263.431030 701.713989,263.592072 697.545044,263.746338 
	C696.328491,261.450165 695.571960,259.160797 694.799683,256.493896 
z"/>
</svg>